<svg xmlns="http://www.w3.org/2000/svg" width="467.568" height="280.163" viewBox="0 0 467.568 280.163">
  <g id="logo_white" data-name="logo white" transform="translate(-266.215 479.986)">
    <g id="g14">
      <g id="Group_1" data-name="Group 1">
        <g id="g22" transform="translate(626.685 -365.503)">
          <path id="path24" d="M0,0A23.863,23.863,0,0,1-23.863,23.863,23.863,23.863,0,0,1-47.725,0,23.862,23.862,0,0,1-23.863-23.861,23.862,23.862,0,0,1,0,0" transform="translate(2 -4)" fill="#5f5f5f"/>
        </g>
        <g id="g26" transform="translate(666.622 -441.605)">
          <path id="path28" d="M0,0A30.709,30.709,0,0,0-8.767.913c1.165.725,2.124.344,3.029.245C-3.817.948-1.853.939,0,0M30.1,26.357c-4.584.3-9.1.812-13.325,2.643A24.724,24.724,0,0,0,30.1,26.357M-49.493-4.029c5.881-1.849,12.283-5.469,15.372-8.712A131.785,131.785,0,0,0-47.86-5.792c-.584.357-1.365.547-1.633,1.763M-81.642-29.573c1.757,4.263,8.307,9.071,13.032,9.645-4.088-3.532-7.8-7.564-13.032-9.645M-100.12-11.549c5.169,1.567,10.013.5,14.844-.8.2-.056.531-.4.505-.445a3.774,3.774,0,0,0-.64-.852,2.7,2.7,0,0,0-2.439-.519q-4.948.508-9.889,1.124a2.565,2.565,0,0,0-2.381,1.489m66.061-7.277c-3.536-5.577-6.8-11.473-12.676-15.9.973,6.133,5.324,11.6,12.676,15.9M37.879,12.84c1.285-6.384.108-18.308-2.149-21.945-2.364,7.627-.141,14.477,2.149,21.945M4.395-7.587C5.06-15.167,2.619-24.7-.664-26.617-1.851-19.453.831-13.521,4.395-7.587m-5,3.644c-.583-1.244-1.769-1.375-2.727-1.779a125.637,125.637,0,0,0-20.851-6.564,5.986,5.986,0,0,0-5.443,1.179A82.351,82.351,0,0,1-46.2-1.485,14.77,14.77,0,0,1-51.5-.015a2.994,2.994,0,0,1-3.143-1.509,3.072,3.072,0,0,1,.563-3.453,14.338,14.338,0,0,1,3.6-3.139,62.583,62.583,0,0,1,10.773-5.825,4.055,4.055,0,0,0-3.147-.889c-4.928-.217-9.865-.237-14.785-.564a7.21,7.21,0,0,0-6.645,3.123Q-67.465-8.19-70.876-4.3a15.533,15.533,0,0,1-4.843,3.94c-1.173.565-2.361.824-3.481-.06-1.3-1.025-1.1-2.4-.675-3.739a10.858,10.858,0,0,1,2.82-4.292,28.176,28.176,0,0,0,3.8-4.3c-1.383.484-2.776.943-4.148,1.456a56.52,56.52,0,0,1-15.739,3.8,17.479,17.479,0,0,1-8.024-.935c-1.511-.62-2.964-1.44-3.039-3.377s1.235-2.823,2.74-3.56a17.669,17.669,0,0,1,5.347-1.363c5.008-.727,10.063-.868,15.108-1.128,1.591-.081,3.177-.2,4.7-.3.457-1.431-.691-1.613-1.292-2.057a35.714,35.714,0,0,1-6.165-5.348A8.678,8.678,0,0,1-85.6-28.339c-.487-1.447-.839-2.939.315-4.212s2.659-1.089,4.131-.667a18.58,18.58,0,0,1,6.435,3.628c3.86,3.113,7.691,6.267,11.452,9.5a4.534,4.534,0,0,0,3.236,1.439c6.167-.148,12.328.151,18.487.515a.832.832,0,0,0,.969-.576c-1.813-2.015-3.739-4.071-5.571-6.209a17.65,17.65,0,0,1-3.943-8.323c-.341-1.8-.212-3.6,1.469-4.647,1.74-1.083,3.368-.2,4.735.968a54.73,54.73,0,0,1,9.2,10.685c1.772,2.547,3.447,5.167,5.051,7.823a4.328,4.328,0,0,0,3.108,2.329,122.738,122.738,0,0,1,24.837,7.4,7.079,7.079,0,0,0,1.3.224c.052-1.531-.895-2.592-1.416-3.759A28.929,28.929,0,0,1-4.329-24.136a10.351,10.351,0,0,1,.177-1.847C-3.784-28-3.2-29.995-.871-30.415c2.293-.413,3.635,1.192,4.737,2.916a19.592,19.592,0,0,1,2.639,7.7q1.076,6.986,1.932,14a3.875,3.875,0,0,0,1.967,3.3A103.586,103.586,0,0,1,33.587,15.991,15.178,15.178,0,0,0,34.9,17.056c.64-1.709-.3-3.045-.647-4.361A100.007,100.007,0,0,1,31.74,2.2a24.258,24.258,0,0,1,.8-12.111c.619-1.692,1.508-3.265,3.567-3.233s2.943,1.671,3.531,3.351a36.6,36.6,0,0,1,1.6,8.388,121.736,121.736,0,0,1,.115,21.911,8.886,8.886,0,0,0,2.336,7.108c2.712,3.059,5.209,6.316,7.719,9.551.788,1.015,2.216,2.375.849,3.532-1.685,1.431-2.5-.541-3.393-1.619-2.768-3.348-5.475-6.745-8.284-10.056-1.959-2.3-2.269-2.332-5.019-1.009a43.784,43.784,0,0,1-20.3,4.78,10.77,10.77,0,0,1-4.707-.828c-1.9-.964-2.149-2.848-.5-4.181a14.14,14.14,0,0,1,5.021-2.265,99.413,99.413,0,0,1,15.215-2.941c1.177-.157,2.437-.008,3.461-.7.163-.832-.368-1.216-.777-1.665A105.954,105.954,0,0,0,12.113,2.381a4.915,4.915,0,0,0-5.087-.6C-.545,4.8-8.579,5.028-16.625,4.852a6.159,6.159,0,0,1-2.161-.445c-1.845-.765-2.131-2.428-.656-3.82a8.5,8.5,0,0,1,3.625-1.74A73.915,73.915,0,0,1-4.205-3.291a9.95,9.95,0,0,0,3.6-.652" fill="#ebebeb"/>
        </g>
        <path id="path30" d="M540.539-199.824H332.561V-326.762H540.539Z" fill="#5f5f5f"/>
        <path id="path32" d="M540.539-423.112H332.561V-438.73H540.539Z" fill="#5f5f5f"/>
        <g id="g34" transform="translate(665.846 -432.946)">
          <path id="path36" d="M0,0A30.69,30.69,0,0,0-8.645,1.717c1.228.616,2.145.147,3.039-.035C-3.715,1.3-1.759,1.105,0,0M32.4,23.468c-4.537.721-8.984,1.648-13.025,3.861A24.732,24.732,0,0,0,32.4,23.468M-49.655.553c5.685-2.384,11.725-6.579,14.5-10.092A131.7,131.7,0,0,0-48.192-1.352c-.548.409-1.308.671-1.463,1.905M-84.024-21.915c2.143,4.081,9.108,8.265,13.867,8.4-4.4-3.14-8.467-6.812-13.867-8.4M-100.758-2.264c5.291,1.083,10.016-.421,14.707-2.164.2-.073.492-.441.463-.489a3.866,3.866,0,0,0-.716-.789A2.708,2.708,0,0,0-88.781-6q-4.882.962-9.745,2.031a2.565,2.565,0,0,0-2.232,1.7M-35.651-15.6c-4.037-5.228-7.829-10.8-14.089-14.661,1.536,6.019,6.373,11.06,14.089,14.661M38.9,9.291c.689-6.476-1.583-18.24-4.165-21.653C33.085-4.551,35.932,2.065,38.9,9.291M3.675-7.96C3.639-15.568.328-24.833-3.117-26.443-3.639-19.2-.421-13.54,3.675-7.96M-.972-3.869c-.693-1.185-1.889-1.207-2.879-1.52A125.58,125.58,0,0,0-25.217-10a5.983,5.983,0,0,0-5.311,1.676A82.326,82.326,0,0,1-46.139,2.783a14.741,14.741,0,0,1-5.148,1.955,3,3,0,0,1-3.268-1.213A3.073,3.073,0,0,1-54.313.032,14.371,14.371,0,0,1-51.02-3.424a62.637,62.637,0,0,1,10.189-6.795,4.048,4.048,0,0,0-3.213-.595c-4.928.239-9.847.675-14.776.8a7.206,7.206,0,0,0-6.327,3.723q-2.786,4.356-5.825,8.548a15.517,15.517,0,0,1-4.456,4.371c-1.117.672-2.276,1.039-3.475.263-1.392-.9-1.312-2.292-1.015-3.661A10.864,10.864,0,0,1-77.506-1.3a28.044,28.044,0,0,0,3.384-4.633c-1.333.609-2.677,1.193-3.995,1.832A56.519,56.519,0,0,1-93.44,1.136a17.479,17.479,0,0,1-8.076-.191c-1.56-.479-3.083-1.161-3.337-3.083s.969-2.924,2.4-3.8a17.633,17.633,0,0,1,5.2-1.851c4.919-1.187,9.94-1.793,14.94-2.517,1.575-.227,3.144-.492,4.655-.731.324-1.467-.836-1.543-1.477-1.929a35.772,35.772,0,0,1-6.631-4.757,8.652,8.652,0,0,1-2.083-2.6c-.619-1.395-1.107-2.848-.073-4.223s2.545-1.331,4.051-1.044a18.552,18.552,0,0,1,6.741,3.017c4.132,2.744,8.235,5.531,12.279,8.4A4.54,4.54,0,0,0-61.5-13.033c6.128-.717,12.291-.988,18.456-1.193a.833.833,0,0,0,.912-.663c-1.991-1.84-4.1-3.709-6.12-5.669a17.639,17.639,0,0,1-4.693-7.924c-.507-1.759-.543-3.564,1.035-4.763,1.633-1.239,3.335-.505,4.8.527a54.775,54.775,0,0,1,10.151,9.792c2,2.372,3.909,4.825,5.751,7.323a4.322,4.322,0,0,0,3.309,2.032A122.891,122.891,0,0,1-2.477-8.491a7.115,7.115,0,0,0,1.317.1c-.089-1.528-1.131-2.5-1.756-3.612A28.931,28.931,0,0,1-6.539-23.633a10.523,10.523,0,0,1,.007-1.856c.179-2.044.579-4.083,2.857-4.715,2.248-.624,3.731.851,4.988,2.465a19.555,19.555,0,0,1,3.336,7.425Q6.367-13.459,7.865-6.552a3.873,3.873,0,0,0,2.263,3.108A103.569,103.569,0,0,1,34.917,12.823a14.873,14.873,0,0,0,1.4.94c.481-1.76-.58-3-1.045-4.283A100.073,100.073,0,0,1,31.807-.735a24.264,24.264,0,0,1-.321-12.133c.46-1.743,1.2-3.391,3.253-3.549s3.083,1.393,3.824,3.012a36.591,36.591,0,0,1,2.368,8.2,121.691,121.691,0,0,1,2.136,21.807,8.888,8.888,0,0,0,2.981,6.863c2.983,2.795,5.771,5.808,8.568,8.8.877.937,2.425,2.16,1.172,3.439-1.547,1.579-2.541-.309-3.529-1.3-3.064-3.077-6.072-6.211-9.176-9.248-2.164-2.113-2.475-2.112-5.092-.543a43.769,43.769,0,0,1-19.769,6.635,10.8,10.8,0,0,1-4.763-.391c-1.984-.785-2.4-2.639-.881-4.117a14.128,14.128,0,0,1,4.789-2.72,99.522,99.522,0,0,1,14.88-4.333c1.157-.265,2.425-.233,3.383-1.012.085-.843-.48-1.177-.929-1.587A105.965,105.965,0,0,0,12.281,1.252,4.919,4.919,0,0,0,7.16,1.128C-.1,4.833-8.079,5.8-16.107,6.364A6.139,6.139,0,0,1-18.3,6.12c-1.907-.591-2.344-2.22-1.005-3.743A8.509,8.509,0,0,1-15.859.311a74.13,74.13,0,0,1,11.367-3.2,9.965,9.965,0,0,0,3.52-.98" fill="#5f5f5f"/>
        </g>
        <g id="g38" transform="translate(733.783 -248.908)">
          <path id="path40" d="M0,0H-467.568V-125.924h59.473v4.567H-463V-4.567H-4.567v-116.79h-9.589v-4.567H0Z" fill="#fff"/>
        </g>
      </g>
    </g>
    <path id="text44" d="M30.88-56H6.64V0H19.6V-15.44H30.88c14.96,0,24.32-7.76,24.32-20.24C55.2-48.24,45.84-56,30.88-56Zm-.72,30H19.6V-45.44H30.16c7.92,0,11.92,3.6,11.92,9.76C42.08-29.6,38.08-26,30.16-26ZM107.44,0h13.6L96-56H83.2L58.24,0H71.52l4.96-12h26ZM80.64-21.84l8.88-21.44L98.4-21.84ZM139.68,0h12.96V-45.44h17.92V-56h-48.8v10.56h17.92Zm91.44,0L218.56-18c7.28-3.12,11.52-9.28,11.52-17.68,0-12.56-9.36-20.32-24.32-20.32H181.52V0h12.96V-15.6H206.4L217.2,0ZM216.96-35.68c0,6.08-4,9.76-11.92,9.76H194.48V-45.44h10.56C212.96-45.44,216.96-41.84,216.96-35.68ZM271.44.96c17.6,0,30.64-12.24,30.64-28.96s-13.04-28.96-30.64-28.96c-17.68,0-30.64,12.32-30.64,28.96S253.76.96,271.44.96Zm0-11.04c-10,0-17.52-7.28-17.52-17.92s7.52-17.92,17.52-17.92S288.96-38.64,288.96-28,281.44-10.08,271.44-10.08ZM315.84,0h41.04V-10.56H328.8V-56H315.84Z" transform="translate(333.389 -353.138)" fill="#fff"/>
    <path id="text48" d="M23.936-8.668c0-11.176-16.192-6.864-16.192-13.772,0-2.948,2.244-4.356,5.148-4.268,3.168.088,4.972,1.98,5.148,4.048h5.544c-.44-5.236-4.576-8.316-10.428-8.316-6.248,0-10.516,3.344-10.516,8.712C2.64-11,18.876-15.8,18.876-8.4c0,2.6-1.98,4.488-5.5,4.488C9.9-3.916,8.14-5.94,7.92-8.448H2.552C2.552-3.036,7.26.308,13.376.308,20.2.308,23.936-4.092,23.936-8.668Zm15.8-17.82h8.184V0h5.016V-26.488h8.14V-30.58H39.732ZM107.14-15.356a15.244,15.244,0,0,0-15.62-15.62A15.3,15.3,0,0,0,75.9-15.356,15.306,15.306,0,0,0,91.52.308,15.255,15.255,0,0,0,107.14-15.356Zm-26.092,0c0-6.908,4.4-11.22,10.472-11.22s10.472,4.312,10.472,11.22S97.592-4.048,91.52-4.048,81.048-8.448,81.048-15.356Zm58.7-6.072c0,3.036-1.76,5.192-5.676,5.192h-5.544V-26.488h5.544C137.984-26.488,139.744-24.508,139.744-21.428ZM123.508-30.58V0h5.016V-12.232h3.828L139.392,0h5.984l-7.568-12.672a8.7,8.7,0,0,0,7.084-8.756c0-4.972-3.564-9.152-10.824-9.152Zm56.144-.044h-16.9V0h16.9V-4.092h-11.88v-9.372h10.56v-4.092h-10.56v-8.976h11.88Z" transform="translate(347.93 -284.391)" fill="#fff"/>
    <path id="text66" d="M4.635.12C7.41.12,8.7-1.26,8.7-2.865c0-3.855-6.36-2.25-6.36-4.815,0-.915.765-1.665,2.55-1.665a5.423,5.423,0,0,1,2.88.855l.5-1.2a6.177,6.177,0,0,0-3.375-.93c-2.76,0-4.02,1.38-4.02,3,0,3.9,6.36,2.28,6.36,4.845,0,.915-.78,1.62-2.6,1.62A5.4,5.4,0,0,1,1.17-2.37L.615-1.2A6.233,6.233,0,0,0,4.635.12ZM10.89,0h1.5V-10.5h-1.5ZM23.07-10.5v7.83l-6.3-7.83H15.54V0h1.5V-7.83L23.34,0h1.23V-10.5ZM32.415.12A5.21,5.21,0,0,0,36.42-1.53l-.975-.945a3.9,3.9,0,0,1-2.955,1.26A3.966,3.966,0,0,1,28.365-5.25,3.966,3.966,0,0,1,32.49-9.285,3.891,3.891,0,0,1,35.445-8.04l.975-.945a5.189,5.189,0,0,0-3.99-1.635,5.311,5.311,0,0,0-5.565,5.37A5.307,5.307,0,0,0,32.415.12Zm7.65-1.425V-4.7H45.33V-5.97H40.065V-9.2h5.91V-10.5h-7.41V0h7.62V-1.305Zm13.725,0L57-4.395c1.425-1.365,1.725-2.28,1.725-3.3,0-1.8-1.41-2.925-3.6-2.925a4.842,4.842,0,0,0-3.84,1.59l1.02.885a3.3,3.3,0,0,1,2.685-1.14c1.47,0,2.235.66,2.235,1.74,0,.66-.21,1.32-1.32,2.4L51.63-1.02V0h7.545V-1.305ZM64.65.12c2.445,0,4.275-1.95,4.275-5.37s-1.83-5.37-4.275-5.37-4.29,1.95-4.29,5.37S62.19.12,64.65.12Zm0-1.335c-1.65,0-2.79-1.35-2.79-4.035S63-9.285,64.65-9.285s2.775,1.35,2.775,4.035S66.285-1.215,64.65-1.215ZM69.72-10.5V-9.2h2.37V0h1.485V-10.5Zm9.15,4.185H77.7l.285-2.88H82.65V-10.5H76.725L76.17-5.01h2.385c2.43,0,3.18.735,3.18,1.92,0,1.14-.9,1.875-2.49,1.875A4.717,4.717,0,0,1,76.1-2.34L75.4-1.155A6.014,6.014,0,0,0,79.26.12c2.685,0,3.975-1.455,3.975-3.27C83.235-5.01,82.005-6.315,78.87-6.315ZM102.78-10.5,99.885-1.92l-2.9-8.58H95.61L92.655-1.965,89.82-10.5H88.275L91.785,0H93.39l2.865-8.385L99.12,0h1.575l3.51-10.5ZM106.035,0h1.5V-10.5h-1.5Zm6.735,0h1.485V-9.2h3.6V-10.5H109.17V-9.2h3.6Zm14.25-10.5v4.515h-6.03V-10.5h-1.5V0h1.5V-4.68h6.03V0h1.5V-10.5Zm16.875,0H142.41l-3.375,5.535-3.36-5.535h-1.6l4.17,6.84V0h1.485V-3.63ZM149.7.12a5.32,5.32,0,0,0,5.565-5.37,5.32,5.32,0,0,0-5.565-5.37,5.337,5.337,0,0,0-5.6,5.37A5.337,5.337,0,0,0,149.7.12Zm0-1.335a3.95,3.95,0,0,1-4.1-4.035,3.95,3.95,0,0,1,4.1-4.035,3.942,3.942,0,0,1,4.065,4.035A3.942,3.942,0,0,1,149.7-1.215ZM161.91.12c2.775,0,4.44-1.605,4.44-4.65V-10.5H164.9v5.91c0,2.325-1.08,3.375-2.97,3.375s-2.955-1.05-2.955-3.375V-10.5h-1.5v5.97C157.47-1.485,159.15.12,161.91.12Z" transform="translate(550.389 -224.623)" fill="#fff"/>
  </g>
</svg>
